<svg xmlns="http://www.w3.org/2000/svg" viewBox="0 0 512 512" width="512" height="512">
  <g fill="#2f3b59" fill-rule="evenodd" transform="translate(-11 8)">
    <!-- clipboard outline, with the gap around the badge cut out -->
    <path d="M404 307.15 V140 A40 40 0 0 0 364 100 H132 A40 40 0 0 0 92 140 V410 A40 40 0 0 0 132 450 H279.25
             A97 97 0 0 1 264.13 420 H134 A12 12 0 0 1 122 408 V142 A12 12 0 0 1 134 130 H362 A12 12 0 0 1 374 142 V296.5
             A97 97 0 0 1 404 307.15 Z"/>
    <!-- clip with hole -->
    <path d="M150 104 A16 16 0 0 1 166 88 H182 A14 14 0 0 0 196 74 V70 A52 52 0 0 1 300 70 V74 A14 14 0 0 0 314 88 H330 A16 16 0 0 1 346 104 V132 A18 18 0 0 1 328 150 H168 A18 18 0 0 1 150 132 Z
             M248 48 A18 18 0 0 0 248 84 A18 18 0 0 0 248 48 Z"/>
    <!-- text lines -->
    <path fill="#ff6b6b" d="M165 197 H321 A14 14 0 0 1 321 225 H165 A14 14 0 0 1 165 197 Z"/>
    <path fill="#ffb627" d="M165 255 H321 A14 14 0 0 1 321 283 H165 A14 14 0 0 1 165 255 Z"/>
    <path fill="#4d96ff" d="M165 312 H302.1 A97 97 0 0 0 275.1 340 H165 A14 14 0 0 1 165 312 Z"/>
    <!-- sync badge with arrows cut out -->
    <path d="M357 307 A85 85 0 1 1 357 477 A85 85 0 1 1 357 307 Z
             M318.36 381.65 A40 40 0 0 1 387.64 366.29 L378.45 374 L413.44 383.81 L409.85 347.65 L400.66 355.36 A57 57 0 0 0 301.94 377.25 Z
             M395.64 402.35 A40 40 0 0 1 326.36 417.71 L335.55 410 L300.56 400.19 L304.15 436.35 L313.34 428.64 A57 57 0 0 0 412.06 406.75 Z"/>
  </g>
</svg>
